<svg xmlns="http://www.w3.org/2000/svg" xmlns:xlink="http://www.w3.org/1999/xlink" width="800" zoomAndPan="magnify" viewBox="0 0 600 149.999998" height="200" preserveAspectRatio="xMidYMid meet" version="1.0"><defs><g/><clipPath id="decd765ddb"><rect x="0" width="571" y="0" height="148"/></clipPath></defs><rect x="-60" width="720" fill="#ffffff" y="-15" height="179.999997" fill-opacity="1"/><rect x="-60" width="720" fill="#ffffff" y="-15" height="179.999997" fill-opacity="1"/><g transform="matrix(1, 0, 0, 1, 17, 1)"><g clip-path="url(#decd765ddb)"><g fill="#ec003f" fill-opacity="1"><g transform="translate(4.242038, 102.335419)"><g><path d="M 38.921875 -53.203125 C 48.035156 -53.203125 54.753906 -51.359375 59.078125 -47.671875 C 63.398438 -43.984375 65.5625 -39.15625 65.5625 -33.1875 C 65.5625 -31.175781 65.296875 -28.929688 64.765625 -26.453125 C 63.492188 -20.953125 61.113281 -16.140625 57.625 -12.015625 C 54.132812 -7.890625 49.859375 -4.703125 44.796875 -2.453125 C 39.734375 -0.210938 34.253906 0.90625 28.359375 0.90625 C 19.035156 0.90625 12.144531 -0.953125 7.6875 -4.671875 C 3.226562 -8.390625 1 -13.335938 1 -19.515625 C 1 -21.585938 1.269531 -23.898438 1.8125 -26.453125 C 3.082031 -31.679688 5.507812 -36.320312 9.09375 -40.375 C 12.6875 -44.425781 17.078125 -47.578125 22.265625 -49.828125 C 27.460938 -52.078125 33.015625 -53.203125 38.921875 -53.203125 Z M 38.609375 -44.25 C 37.203125 -44.25 35.710938 -42.988281 34.140625 -40.46875 C 32.566406 -37.957031 30.707031 -33.21875 28.5625 -26.25 C 26.414062 -19.269531 25.34375 -14.375 25.34375 -11.5625 C 25.34375 -10.09375 25.578125 -9.101562 26.046875 -8.59375 C 26.515625 -8.09375 27.148438 -7.84375 27.953125 -7.84375 C 29.359375 -7.707031 30.816406 -8.910156 32.328125 -11.453125 C 33.835938 -14.003906 35.734375 -18.96875 38.015625 -26.34375 C 40.085938 -32.851562 41.125 -37.582031 41.125 -40.53125 C 41.125 -41.9375 40.90625 -42.90625 40.46875 -43.4375 C 40.039062 -43.976562 39.421875 -44.25 38.609375 -44.25 Z M 38.609375 -44.25 "/></g></g></g><g fill="#ec003f" fill-opacity="1"><g transform="translate(73.224241, 102.335419)"><g><path d="M 61.640625 -13.875 C 61.503906 -13.601562 61.4375 -13.203125 61.4375 -12.671875 C 61.4375 -12.203125 61.550781 -11.832031 61.78125 -11.5625 C 62.019531 -11.289062 62.34375 -11.15625 62.75 -11.15625 C 63.550781 -11.15625 64.238281 -11.507812 64.8125 -12.21875 C 65.382812 -12.925781 65.769531 -13.28125 65.96875 -13.28125 C 66.300781 -13.28125 66.566406 -13.0625 66.765625 -12.625 C 66.972656 -12.1875 67.078125 -11.664062 67.078125 -11.0625 C 67.140625 -9.113281 66.5 -7.21875 65.15625 -5.375 C 63.820312 -3.53125 61.863281 -2.019531 59.28125 -0.84375 C 56.695312 0.320312 53.597656 0.90625 49.984375 0.90625 C 45.554688 0.90625 42.035156 -0.113281 39.421875 -2.15625 C 36.804688 -4.207031 35.460938 -6.941406 35.390625 -10.359375 C 35.390625 -12.835938 35.992188 -15.617188 37.203125 -18.703125 L 42.734375 -33.1875 C 43.066406 -34.0625 43.234375 -34.765625 43.234375 -35.296875 C 43.234375 -36.171875 42.945312 -36.859375 42.375 -37.359375 C 41.8125 -37.859375 41.128906 -38.109375 40.328125 -38.109375 C 39.054688 -38.109375 37.765625 -37.519531 36.453125 -36.34375 C 35.148438 -35.175781 34.09375 -33.285156 33.28125 -30.671875 L 33.28125 -30.875 L 26.953125 -10.453125 C 26.753906 -9.648438 26.65625 -8.945312 26.65625 -8.34375 C 26.65625 -7.476562 26.820312 -6.789062 27.15625 -6.28125 C 27.488281 -5.78125 27.957031 -5.296875 28.5625 -4.828125 C 29.03125 -4.359375 29.363281 -3.972656 29.5625 -3.671875 C 29.757812 -3.367188 29.796875 -2.984375 29.671875 -2.515625 C 29.328125 -1.640625 28.648438 -1 27.640625 -0.59375 C 26.640625 -0.195312 25.101562 0 23.03125 0 L 0.09375 0 C -1.644531 0 -2.914062 -0.28125 -3.71875 -0.84375 C -4.519531 -1.414062 -4.789062 -2.175781 -4.53125 -3.125 C -4.257812 -3.925781 -3.550781 -4.628906 -2.40625 -5.234375 C -1.40625 -5.765625 -0.570312 -6.398438 0.09375 -7.140625 C 0.769531 -7.878906 1.34375 -9.050781 1.8125 -10.65625 L 17.09375 -60.84375 C 17.289062 -61.445312 17.390625 -61.945312 17.390625 -62.34375 C 17.390625 -63.082031 17.207031 -63.6875 16.84375 -64.15625 C 16.476562 -64.625 15.992188 -65.09375 15.390625 -65.5625 C 14.710938 -66.101562 14.222656 -66.570312 13.921875 -66.96875 C 13.617188 -67.375 13.570312 -67.910156 13.78125 -68.578125 C 14.175781 -70.117188 16.285156 -71.457031 20.109375 -72.59375 C 23.929688 -73.738281 27.921875 -74.3125 32.078125 -74.3125 C 35.960938 -74.3125 38.828125 -73.570312 40.671875 -72.09375 C 42.515625 -70.625 43.4375 -68.613281 43.4375 -66.0625 C 43.4375 -64.59375 43.203125 -63.15625 42.734375 -61.75 L 37.3125 -44.046875 C 39.925781 -47.460938 42.691406 -49.84375 45.609375 -51.1875 C 48.523438 -52.53125 51.691406 -53.203125 55.109375 -53.203125 C 59.203125 -53.203125 62.503906 -51.957031 65.015625 -49.46875 C 67.523438 -46.988281 68.78125 -43.773438 68.78125 -39.828125 C 68.78125 -37.742188 68.445312 -35.695312 67.78125 -33.6875 Z M 61.640625 -13.875 "/></g></g></g><g fill="#ec003f" fill-opacity="1"><g transform="translate(149.647683, 102.335419)"><g/></g></g><g fill="#ec003f" fill-opacity="1"><g transform="translate(174.786992, 102.335419)"><g><path d="M 26.4375 -53.203125 C 30.332031 -53.203125 33.179688 -52.460938 34.984375 -50.984375 C 36.796875 -49.503906 37.703125 -47.492188 37.703125 -44.953125 C 37.703125 -43.410156 37.46875 -41.9375 37 -40.53125 L 27.75 -10.453125 C 27.550781 -9.648438 27.453125 -8.945312 27.453125 -8.34375 C 27.453125 -7.476562 27.617188 -6.789062 27.953125 -6.28125 C 28.285156 -5.78125 28.753906 -5.296875 29.359375 -4.828125 C 29.828125 -4.359375 30.160156 -3.972656 30.359375 -3.671875 C 30.566406 -3.367188 30.601562 -2.984375 30.46875 -2.515625 C 30.132812 -1.640625 29.460938 -1 28.453125 -0.59375 C 27.453125 -0.195312 25.910156 0 23.828125 0 L 0.90625 0 C -0.84375 0 -2.117188 -0.28125 -2.921875 -0.84375 C -3.722656 -1.414062 -3.988281 -2.175781 -3.71875 -3.125 C -3.457031 -3.925781 -2.753906 -4.628906 -1.609375 -5.234375 C -0.609375 -5.765625 0.222656 -6.398438 0.890625 -7.140625 C 1.566406 -7.878906 2.140625 -9.050781 2.609375 -10.65625 L 11.359375 -39.71875 C 11.554688 -40.320312 11.65625 -40.828125 11.65625 -41.234375 C 11.65625 -41.972656 11.488281 -42.554688 11.15625 -42.984375 C 10.820312 -43.421875 10.320312 -43.875 9.65625 -44.34375 C 8.976562 -44.882812 8.503906 -45.351562 8.234375 -45.75 C 7.972656 -46.15625 7.941406 -46.691406 8.140625 -47.359375 C 8.546875 -48.898438 10.65625 -50.257812 14.46875 -51.4375 C 18.289062 -52.613281 22.28125 -53.203125 26.4375 -53.203125 Z M 33.171875 -75.421875 C 35.785156 -75.421875 37.960938 -74.566406 39.703125 -72.859375 C 41.453125 -71.148438 42.328125 -69.054688 42.328125 -66.578125 C 42.328125 -64.828125 41.875 -63.113281 40.96875 -61.4375 C 40.0625 -59.757812 38.785156 -58.398438 37.140625 -57.359375 C 35.503906 -56.328125 33.679688 -55.8125 31.671875 -55.8125 C 29.117188 -55.8125 26.988281 -56.664062 25.28125 -58.375 C 23.570312 -60.082031 22.679688 -62.210938 22.609375 -64.765625 C 22.609375 -66.441406 23.046875 -68.097656 23.921875 -69.734375 C 24.796875 -71.378906 26.035156 -72.738281 27.640625 -73.8125 C 29.253906 -74.882812 31.097656 -75.421875 33.171875 -75.421875 Z M 33.171875 -75.421875 "/></g></g></g><g fill="#ec003f" fill-opacity="1"><g transform="translate(216.618791, 102.335419)"><g><path d="M 95.640625 -13.875 C 95.503906 -13.601562 95.4375 -13.203125 95.4375 -12.671875 C 95.4375 -12.203125 95.550781 -11.832031 95.78125 -11.5625 C 96.019531 -11.289062 96.335938 -11.15625 96.734375 -11.15625 C 97.546875 -11.15625 98.234375 -11.507812 98.796875 -12.21875 C 99.367188 -12.925781 99.753906 -13.28125 99.953125 -13.28125 C 100.296875 -13.28125 100.566406 -13.0625 100.765625 -12.625 C 100.960938 -12.1875 101.0625 -11.664062 101.0625 -11.0625 C 101.132812 -9.113281 100.5 -7.21875 99.15625 -5.375 C 97.8125 -3.53125 95.847656 -2.019531 93.265625 -0.84375 C 90.691406 0.320312 87.59375 0.90625 83.96875 0.90625 C 79.539062 0.90625 76.019531 -0.113281 73.40625 -2.15625 C 70.789062 -4.207031 69.453125 -6.941406 69.390625 -10.359375 C 69.390625 -12.835938 69.992188 -15.617188 71.203125 -18.703125 L 76.734375 -33.1875 C 77.066406 -34.0625 77.234375 -34.765625 77.234375 -35.296875 C 77.234375 -36.171875 76.945312 -36.859375 76.375 -37.359375 C 75.800781 -37.859375 75.113281 -38.109375 74.3125 -38.109375 C 73.175781 -38.109375 72.003906 -37.601562 70.796875 -36.59375 C 69.585938 -35.59375 68.515625 -34.019531 67.578125 -31.875 L 62.046875 -13.875 C 61.910156 -13.601562 61.84375 -13.203125 61.84375 -12.671875 C 61.84375 -12.203125 61.957031 -11.832031 62.1875 -11.5625 C 62.425781 -11.289062 62.75 -11.15625 63.15625 -11.15625 C 63.957031 -11.15625 64.640625 -11.507812 65.203125 -12.21875 C 65.773438 -12.925781 66.164062 -13.28125 66.375 -13.28125 C 66.707031 -13.28125 66.972656 -13.0625 67.171875 -12.625 C 67.378906 -12.1875 67.484375 -11.664062 67.484375 -11.0625 C 67.546875 -9.113281 66.90625 -7.21875 65.5625 -5.375 C 64.226562 -3.53125 62.269531 -2.019531 59.6875 -0.84375 C 57.101562 0.320312 54 0.90625 50.375 0.90625 C 45.957031 0.90625 42.441406 -0.113281 39.828125 -2.15625 C 37.210938 -4.207031 35.867188 -6.941406 35.796875 -10.359375 C 35.796875 -12.835938 36.398438 -15.617188 37.609375 -18.703125 L 43.140625 -33.1875 C 43.472656 -34.0625 43.640625 -34.765625 43.640625 -35.296875 C 43.640625 -36.171875 43.351562 -36.859375 42.78125 -37.359375 C 42.21875 -37.859375 41.535156 -38.109375 40.734375 -38.109375 C 39.585938 -38.109375 38.410156 -37.625 37.203125 -36.65625 C 35.992188 -35.6875 34.988281 -34.128906 34.1875 -31.984375 L 27.546875 -10.453125 C 27.285156 -9.722656 27.15625 -9.019531 27.15625 -8.34375 C 27.15625 -7.539062 27.320312 -6.882812 27.65625 -6.375 C 27.988281 -5.875 28.457031 -5.359375 29.0625 -4.828125 C 29.53125 -4.421875 29.863281 -4.050781 30.0625 -3.71875 C 30.269531 -3.382812 30.304688 -2.984375 30.171875 -2.515625 C 29.898438 -1.640625 29.257812 -1 28.25 -0.59375 C 27.25 -0.195312 25.675781 0 23.53125 0 L 0.609375 0 C -1.140625 0 -2.398438 -0.28125 -3.171875 -0.84375 C -3.941406 -1.414062 -4.222656 -2.175781 -4.015625 -3.125 C -3.753906 -3.925781 -3.050781 -4.628906 -1.90625 -5.234375 C -0.90625 -5.765625 -0.0703125 -6.398438 0.59375 -7.140625 C 1.269531 -7.878906 1.84375 -9.050781 2.3125 -10.65625 L 11.265625 -39.71875 C 11.398438 -40.050781 11.46875 -40.519531 11.46875 -41.125 C 11.46875 -41.863281 11.316406 -42.429688 11.015625 -42.828125 C 10.710938 -43.234375 10.222656 -43.738281 9.546875 -44.34375 C 8.878906 -44.882812 8.410156 -45.351562 8.140625 -45.75 C 7.878906 -46.15625 7.847656 -46.691406 8.046875 -47.359375 C 8.441406 -48.898438 10.550781 -50.257812 14.375 -51.4375 C 18.195312 -52.613281 22.1875 -53.203125 26.34375 -53.203125 C 29.632812 -53.203125 32.234375 -52.296875 34.140625 -50.484375 C 36.046875 -48.671875 36.96875 -46.191406 36.90625 -43.046875 C 39.65625 -46.859375 42.554688 -49.503906 45.609375 -50.984375 C 48.660156 -52.460938 51.960938 -53.203125 55.515625 -53.203125 C 59.398438 -53.203125 62.566406 -52.078125 65.015625 -49.828125 C 67.460938 -47.578125 68.820312 -44.644531 69.09375 -41.03125 C 71.96875 -45.59375 75.046875 -48.757812 78.328125 -50.53125 C 81.617188 -52.3125 85.207031 -53.203125 89.09375 -53.203125 C 93.1875 -53.203125 96.488281 -51.957031 99 -49.46875 C 101.519531 -46.988281 102.78125 -43.773438 102.78125 -39.828125 C 102.78125 -37.742188 102.441406 -35.695312 101.765625 -33.6875 Z M 95.640625 -13.875 "/></g></g></g><g fill="#ec003f" fill-opacity="1"><g transform="translate(327.030505, 102.335419)"><g><path d="M 35.90625 -53.203125 C 43.613281 -53.203125 49.78125 -51.773438 54.40625 -48.921875 C 59.03125 -46.078125 61.34375 -41.738281 61.34375 -35.90625 C 61.34375 -33.6875 60.941406 -31.171875 60.140625 -28.359375 L 56.015625 -14.484375 C 55.941406 -14.210938 55.90625 -13.875 55.90625 -13.46875 C 55.90625 -12.394531 56.34375 -11.859375 57.21875 -11.859375 C 58.019531 -11.859375 58.707031 -12.210938 59.28125 -12.921875 C 59.851562 -13.628906 60.238281 -13.984375 60.4375 -13.984375 C 60.769531 -13.984375 61.050781 -13.75 61.28125 -13.28125 C 61.519531 -12.8125 61.640625 -12.273438 61.640625 -11.671875 C 61.710938 -9.859375 61.023438 -8.007812 59.578125 -6.125 C 58.140625 -4.25 56.210938 -2.707031 53.796875 -1.5 C 51.390625 -0.300781 48.742188 0.296875 45.859375 0.296875 C 42.367188 0.296875 39.382812 -0.335938 36.90625 -1.609375 C 34.425781 -2.878906 32.71875 -4.753906 31.78125 -7.234375 C 29.769531 -4.828125 27.390625 -2.96875 24.640625 -1.65625 C 21.890625 -0.351562 18.9375 0.296875 15.78125 0.296875 C 12.226562 0.296875 9.242188 -0.390625 6.828125 -1.765625 C 4.421875 -3.140625 2.628906 -4.914062 1.453125 -7.09375 C 0.285156 -9.269531 -0.296875 -11.566406 -0.296875 -13.984375 C -0.296875 -15.054688 -0.195312 -16.09375 0 -17.09375 C 1.070312 -21.71875 3.398438 -25.203125 6.984375 -27.546875 C 10.578125 -29.898438 14.851562 -31.078125 19.8125 -31.078125 C 25.375 -31.078125 30.835938 -30.203125 36.203125 -28.453125 L 38.71875 -35.09375 C 39.59375 -37.90625 40.03125 -40.085938 40.03125 -41.640625 C 39.957031 -43.242188 39.414062 -44.445312 38.40625 -45.25 C 37.40625 -46.050781 35.863281 -46.453125 33.78125 -46.453125 C 34.1875 -45.378906 34.390625 -44.273438 34.390625 -43.140625 C 34.390625 -40.660156 33.453125 -38.515625 31.578125 -36.703125 C 29.703125 -34.890625 27.019531 -33.984375 23.53125 -33.984375 C 20.25 -33.984375 17.6875 -34.703125 15.84375 -36.140625 C 14 -37.585938 13.078125 -39.382812 13.078125 -41.53125 C 13.078125 -44.882812 14.953125 -47.664062 18.703125 -49.875 C 22.460938 -52.09375 28.195312 -53.203125 35.90625 -53.203125 Z M 30.265625 -22.734375 C 28.390625 -22.734375 26.863281 -22.007812 25.6875 -20.5625 C 24.519531 -19.125 23.9375 -17.566406 23.9375 -15.890625 C 23.9375 -14.816406 24.1875 -13.941406 24.6875 -13.265625 C 25.1875 -12.597656 25.90625 -12.265625 26.84375 -12.265625 C 27.71875 -12.265625 28.675781 -12.613281 29.71875 -13.3125 C 30.757812 -14.019531 31.515625 -15.082031 31.984375 -16.5 L 34.09375 -22.421875 C 32.945312 -22.628906 31.671875 -22.734375 30.265625 -22.734375 Z M 30.265625 -22.734375 "/></g></g></g><g fill="#ec003f" fill-opacity="1"><g transform="translate(397.822739, 102.335419)"><g><path d="M 60.9375 -69.59375 C 63.082031 -69.59375 65.175781 -69.140625 67.21875 -68.234375 C 69.269531 -67.328125 70.945312 -66.082031 72.25 -64.5 C 73.5625 -62.925781 74.21875 -61.238281 74.21875 -59.4375 C 74.21875 -55.476562 71.535156 -53.5 66.171875 -53.5 C 64.628906 -53.5 63.4375 -53.613281 62.59375 -53.84375 C 61.757812 -54.082031 60.773438 -54.46875 59.640625 -55 C 59.429688 -54.53125 59.328125 -53.863281 59.328125 -53 C 59.328125 -51.925781 59.507812 -50.648438 59.875 -49.171875 C 60.25 -47.703125 60.707031 -46.328125 61.25 -45.046875 C 62.65625 -42.972656 63.359375 -40.492188 63.359375 -37.609375 C 63.359375 -36.335938 63.191406 -34.796875 62.859375 -32.984375 C 62.046875 -29.492188 60.28125 -26.304688 57.5625 -23.421875 C 54.851562 -20.546875 51.367188 -18.285156 47.109375 -16.640625 C 42.859375 -14.992188 38.179688 -14.171875 33.078125 -14.171875 C 29.191406 -14.171875 25.539062 -14.441406 22.125 -14.984375 C 21.113281 -14.109375 20.609375 -13.035156 20.609375 -11.765625 C 20.609375 -10.890625 21.007812 -10.164062 21.8125 -9.59375 C 22.625 -9.03125 23.96875 -8.75 25.84375 -8.75 L 40.921875 -8.75 C 46.085938 -8.75 50.113281 -7.859375 53 -6.078125 C 55.882812 -4.304688 57.328125 -1.773438 57.328125 1.515625 C 57.328125 2.710938 57.125 3.953125 56.71875 5.234375 C 55.914062 7.847656 54.085938 10.273438 51.234375 12.515625 C 48.390625 14.765625 44.382812 16.59375 39.21875 18 C 34.050781 19.40625 27.785156 20.109375 20.421875 20.109375 C 13.847656 20.109375 8.28125 19.535156 3.71875 18.390625 C -0.84375 17.253906 -4.242188 15.695312 -6.484375 13.71875 C -8.734375 11.75 -9.859375 9.554688 -9.859375 7.140625 C -9.859375 6.597656 -9.722656 5.789062 -9.453125 4.71875 C -8.847656 2.78125 -7.488281 1.191406 -5.375 -0.046875 C -3.269531 -1.285156 0.195312 -2.109375 5.03125 -2.515625 C 3.414062 -4.054688 2.609375 -5.898438 2.609375 -8.046875 C 2.609375 -8.785156 2.710938 -9.554688 2.921875 -10.359375 C 3.992188 -13.847656 7.144531 -16.425781 12.375 -18.09375 C 7.34375 -20.84375 4.828125 -24.867188 4.828125 -30.171875 C 4.828125 -31.640625 5.03125 -33.179688 5.4375 -34.796875 C 6.238281 -38.285156 8.015625 -41.453125 10.765625 -44.296875 C 13.515625 -47.148438 17.03125 -49.410156 21.3125 -51.078125 C 25.601562 -52.753906 30.296875 -53.59375 35.390625 -53.59375 C 43.367188 -53.59375 49.640625 -52.554688 54.203125 -50.484375 C 53.191406 -52.023438 52.398438 -53.679688 51.828125 -55.453125 C 51.265625 -57.234375 50.984375 -58.863281 50.984375 -60.34375 C 50.984375 -62.882812 51.800781 -65.0625 53.4375 -66.875 C 55.082031 -68.6875 57.582031 -69.59375 60.9375 -69.59375 Z M 39.125 -33.890625 C 40.195312 -37.304688 40.734375 -39.921875 40.734375 -41.734375 C 40.734375 -44.015625 39.757812 -45.15625 37.8125 -45.15625 C 36.132812 -45.15625 34.675781 -44.332031 33.4375 -42.6875 C 32.195312 -41.039062 30.941406 -38.109375 29.671875 -33.890625 C 28.597656 -30.398438 28.0625 -27.75 28.0625 -25.9375 C 28.0625 -23.726562 29 -22.625 30.875 -22.625 C 32.550781 -22.625 34.023438 -23.460938 35.296875 -25.140625 C 36.566406 -26.816406 37.84375 -29.734375 39.125 -33.890625 Z M 19.109375 1.40625 C 17.234375 1.40625 15.523438 1.304688 13.984375 1.109375 C 13.171875 2.109375 12.765625 3.445312 12.765625 5.125 C 12.835938 6.800781 13.523438 8.007812 14.828125 8.75 C 16.140625 9.488281 18.171875 9.859375 20.921875 9.859375 C 24.265625 9.859375 26.992188 9.351562 29.109375 8.34375 C 31.222656 7.34375 32.28125 5.898438 32.28125 4.015625 C 32.28125 3.210938 31.976562 2.578125 31.375 2.109375 C 30.769531 1.640625 29.898438 1.40625 28.765625 1.40625 Z M 19.109375 1.40625 "/></g></g></g><g fill="#ec003f" fill-opacity="1"><g transform="translate(466.704396, 102.335419)"><g><path d="M 34.09375 -53.703125 C 42.601562 -53.703125 48.769531 -52.34375 52.59375 -49.625 C 56.414062 -46.914062 58.328125 -43.445312 58.328125 -39.21875 C 58.328125 -37.945312 58.191406 -36.773438 57.921875 -35.703125 C 56.921875 -31.273438 54.125 -28.101562 49.53125 -26.1875 C 44.9375 -24.28125 39.519531 -23.328125 33.28125 -23.328125 C 30.132812 -23.328125 27.1875 -23.53125 24.4375 -23.9375 C 24.375 -20.445312 25.3125 -18 27.25 -16.59375 C 29.195312 -15.1875 31.910156 -14.484375 35.390625 -14.484375 C 37.003906 -14.484375 38.546875 -14.664062 40.015625 -15.03125 C 41.492188 -15.40625 43.375 -15.957031 45.65625 -16.6875 C 47.53125 -17.363281 48.804688 -17.703125 49.484375 -17.703125 C 50.210938 -17.703125 50.578125 -17.265625 50.578125 -16.390625 C 50.648438 -14.046875 49.78125 -11.582031 47.96875 -9 C 46.15625 -6.414062 43.472656 -4.21875 39.921875 -2.40625 C 36.367188 -0.601562 32.078125 0.296875 27.046875 0.296875 C 19.609375 0.296875 13.507812 -1.578125 8.75 -5.328125 C 3.988281 -9.085938 1.609375 -14.550781 1.609375 -21.71875 C 1.609375 -23.726562 1.875 -26.078125 2.40625 -28.765625 C 4.082031 -37.003906 7.753906 -43.21875 13.421875 -47.40625 C 19.085938 -51.601562 25.976562 -53.703125 34.09375 -53.703125 Z M 25.140625 -29.96875 C 25.410156 -29.894531 25.78125 -29.859375 26.25 -29.859375 C 29.0625 -29.859375 31.203125 -31.164062 32.671875 -33.78125 C 34.148438 -36.40625 34.859375 -39.320312 34.796875 -42.53125 C 34.722656 -44.414062 34.1875 -45.359375 33.1875 -45.359375 C 32.445312 -45.359375 31.570312 -44.769531 30.5625 -43.59375 C 29.5625 -42.414062 28.570312 -40.65625 27.59375 -38.3125 C 26.625 -35.96875 25.804688 -33.1875 25.140625 -29.96875 Z M 25.140625 -29.96875 "/></g></g></g><g fill="#ec003f" fill-opacity="1"><g transform="translate(528.044257, 102.335419)"><g><path d="M 14.171875 -59.734375 C 14.648438 -69.722656 19.710938 -74.71875 29.359375 -74.71875 C 33.046875 -74.71875 35.910156 -73.910156 37.953125 -72.296875 C 40.003906 -70.691406 41.03125 -68.445312 41.03125 -65.5625 C 41.03125 -62.613281 39.988281 -59.265625 37.90625 -55.515625 L 22.125 -27.359375 C 21.320312 -25.816406 20.5 -24.722656 19.65625 -24.078125 C 18.820312 -23.441406 17.800781 -23.125 16.59375 -23.125 C 13.976562 -23.125 12.738281 -24.703125 12.875 -27.859375 Z M 13.875 -20.3125 C 16.5625 -20.3125 18.828125 -19.40625 20.671875 -17.59375 C 22.515625 -15.789062 23.4375 -13.582031 23.4375 -10.96875 C 23.4375 -9.15625 22.945312 -7.375 21.96875 -5.625 C 21 -3.882812 19.660156 -2.460938 17.953125 -1.359375 C 16.242188 -0.253906 14.316406 0.296875 12.171875 0.296875 C 9.554688 0.296875 7.34375 -0.601562 5.53125 -2.40625 C 3.71875 -4.21875 2.78125 -6.429688 2.71875 -9.046875 C 2.71875 -10.859375 3.1875 -12.632812 4.125 -14.375 C 5.0625 -16.125 6.382812 -17.550781 8.09375 -18.65625 C 9.800781 -19.757812 11.726562 -20.3125 13.875 -20.3125 Z M 13.875 -20.3125 "/></g></g></g><g fill="#dd0031" fill-opacity="1"><g transform="translate(1.830598, 103.409061)"><g><path d="M 38.914062 -54.074219 C 48.25 -54.074219 55.160156 -52.160156 59.648438 -48.332031 C 64.179688 -44.472656 66.441406 -39.421875 66.441406 -33.183594 C 66.441406 -31.109375 66.167969 -28.800781 65.617188 -26.261719 C 64.3125 -20.617188 61.867188 -15.679688 58.292969 -11.449219 C 54.71875 -7.222656 50.339844 -3.960938 45.15625 -1.660156 C 39.980469 0.636719 34.378906 1.785156 28.355469 1.785156 C 18.828125 1.785156 11.75 -0.144531 7.128906 -4 C 2.460938 -7.898438 0.125 -13.066406 0.125 -19.507812 C 0.125 -21.648438 0.398438 -24.019531 0.949219 -26.628906 L 0.953125 -26.640625 L 0.957031 -26.65625 C 2.261719 -32.023438 4.757812 -36.792969 8.441406 -40.957031 C 12.113281 -45.109375 16.609375 -48.335938 21.925781 -50.632812 C 27.230469 -52.925781 32.894531 -54.074219 38.914062 -54.074219 Z M 38.914062 -52.316406 C 33.136719 -52.316406 27.707031 -51.214844 22.621094 -49.019531 C 17.546875 -46.824219 13.257812 -43.75 9.757812 -39.789062 C 6.269531 -35.84375 3.902344 -31.328125 2.664062 -26.238281 L 1.808594 -26.445312 L 2.671875 -26.265625 C 2.148438 -23.777344 1.886719 -21.523438 1.886719 -19.507812 C 1.886719 -13.613281 4.007812 -8.894531 8.257812 -5.351562 C 12.550781 -1.765625 19.25 0.0234375 28.355469 0.0234375 C 34.132812 0.0234375 39.492188 -1.074219 44.441406 -3.269531 C 49.378906 -5.460938 53.546875 -8.566406 56.949219 -12.585938 C 60.34375 -16.597656 62.660156 -21.28125 63.898438 -26.632812 C 64.421875 -29.050781 64.683594 -31.234375 64.683594 -33.183594 C 64.683594 -38.878906 62.625 -43.484375 58.507812 -46.996094 C 54.347656 -50.542969 47.816406 -52.316406 38.914062 -52.316406 Z M 38.613281 -43.367188 C 37.53125 -43.367188 36.289062 -42.246094 34.886719 -40.007812 C 33.351562 -37.558594 31.523438 -32.886719 29.398438 -25.988281 C 27.28125 -19.097656 26.21875 -14.292969 26.21875 -11.5625 C 26.21875 -10.320312 26.375 -9.53125 26.6875 -9.199219 C 26.984375 -8.882812 27.40625 -8.722656 27.953125 -8.722656 L 27.996094 -8.722656 L 28.039062 -8.71875 C 29.074219 -8.621094 30.253906 -9.683594 31.570312 -11.910156 C 33.046875 -14.398438 34.910156 -19.296875 37.171875 -26.605469 C 39.222656 -33.027344 40.246094 -37.667969 40.246094 -40.523438 C 40.246094 -41.722656 40.097656 -42.511719 39.792969 -42.886719 C 39.53125 -43.207031 39.140625 -43.367188 38.613281 -43.367188 Z M 38.613281 -45.125 C 39.699219 -45.125 40.546875 -44.75 41.15625 -43.996094 C 41.722656 -43.296875 42.007812 -42.140625 42.007812 -40.523438 C 42.007812 -37.484375 40.957031 -32.671875 38.851562 -26.085938 C 36.550781 -18.644531 34.628906 -13.621094 33.085938 -11.015625 C 31.386719 -8.148438 29.648438 -6.796875 27.871094 -6.96875 L 27.953125 -7.84375 L 27.953125 -6.964844 C 26.894531 -6.964844 26.042969 -7.308594 25.402344 -7.996094 C 24.773438 -8.667969 24.460938 -9.859375 24.460938 -11.5625 C 24.460938 -14.46875 25.546875 -19.449219 27.71875 -26.503906 C 29.886719 -33.550781 31.777344 -38.363281 33.394531 -40.941406 C 35.140625 -43.730469 36.882812 -45.125 38.613281 -45.125 Z M 38.613281 -45.125 "/></g></g></g><g fill="#dd0031" fill-opacity="1"><g transform="translate(70.812801, 103.409061)"><g><path d="M 62.429688 -13.484375 C 62.355469 -13.339844 62.320312 -13.066406 62.320312 -12.671875 C 62.320312 -12.421875 62.363281 -12.246094 62.453125 -12.144531 C 62.515625 -12.074219 62.613281 -12.042969 62.746094 -12.042969 C 63.273438 -12.042969 63.730469 -12.285156 64.125 -12.769531 C 64.871094 -13.691406 65.484375 -14.152344 65.964844 -14.152344 C 66.675781 -14.152344 67.210938 -13.765625 67.570312 -12.988281 C 67.824219 -12.4375 67.953125 -11.792969 67.953125 -11.0625 L 67.070312 -11.0625 L 67.949219 -11.089844 C 68.023438 -8.945312 67.332031 -6.871094 65.871094 -4.863281 C 64.441406 -2.894531 62.363281 -1.289062 59.644531 -0.0546875 C 56.945312 1.171875 53.722656 1.785156 49.976562 1.785156 C 45.351562 1.785156 41.648438 0.699219 38.875 -1.46875 C 36.042969 -3.683594 34.589844 -6.640625 34.515625 -10.339844 C 34.515625 -12.941406 35.140625 -15.835938 36.386719 -19.023438 L 41.914062 -33.496094 C 42.210938 -34.269531 42.359375 -34.867188 42.359375 -35.296875 C 42.359375 -35.902344 42.175781 -36.371094 41.800781 -36.695312 C 41.398438 -37.054688 40.90625 -37.230469 40.324219 -37.230469 C 39.273438 -37.230469 38.179688 -36.71875 37.039062 -35.695312 C 35.851562 -34.632812 34.882812 -32.871094 34.125 -30.410156 L 32.40625 -30.671875 L 32.40625 -30.871094 L 33.285156 -30.871094 L 34.125 -30.609375 L 27.789062 -10.195312 L 26.949219 -10.457031 L 27.804688 -10.246094 C 27.621094 -9.511719 27.527344 -8.878906 27.527344 -8.347656 C 27.527344 -7.652344 27.644531 -7.128906 27.882812 -6.773438 C 28.164062 -6.347656 28.570312 -5.933594 29.097656 -5.519531 L 29.140625 -5.488281 L 29.179688 -5.449219 C 29.691406 -4.9375 30.0625 -4.507812 30.296875 -4.160156 C 30.648438 -3.632812 30.71875 -3.003906 30.511719 -2.273438 L 30.5 -2.234375 L 30.484375 -2.199219 C 30.058594 -1.085938 29.222656 -0.285156 27.980469 0.214844 C 26.871094 0.65625 25.21875 0.878906 23.027344 0.878906 L 0.101562 0.878906 C -1.828125 0.878906 -3.273438 0.539062 -4.230469 -0.136719 C -5.371094 -0.945312 -5.753906 -2.019531 -5.371094 -3.359375 L -5.367188 -3.378906 L -5.359375 -3.394531 C -5.015625 -4.421875 -4.171875 -5.292969 -2.824219 -6.007812 C -1.910156 -6.496094 -1.152344 -7.070312 -0.550781 -7.730469 C 0.0273438 -8.367188 0.535156 -9.425781 0.964844 -10.90625 L 16.257812 -61.105469 L 16.261719 -61.117188 C 16.429688 -61.628906 16.515625 -62.039062 16.515625 -62.34375 C 16.515625 -62.878906 16.394531 -63.300781 16.152344 -63.613281 C 15.828125 -64.023438 15.390625 -64.445312 14.84375 -64.867188 C 14.109375 -65.457031 13.570312 -65.980469 13.222656 -66.441406 C 12.742188 -67.082031 12.648438 -67.878906 12.933594 -68.832031 L 13.777344 -68.578125 L 12.925781 -68.800781 C 13.410156 -70.664062 15.722656 -72.210938 19.859375 -73.445312 C 23.761719 -74.609375 27.835938 -75.191406 32.078125 -75.191406 C 36.171875 -75.191406 39.222656 -74.390625 41.226562 -72.785156 C 43.289062 -71.136719 44.320312 -68.894531 44.320312 -66.066406 C 44.320312 -64.496094 44.070312 -62.960938 43.570312 -61.464844 L 42.738281 -61.742188 L 43.578125 -61.484375 L 38.148438 -43.785156 L 37.308594 -44.042969 L 36.609375 -44.578125 C 39.3125 -48.113281 42.1875 -50.582031 45.234375 -51.984375 C 48.269531 -53.378906 51.558594 -54.074219 55.105469 -54.074219 C 59.433594 -54.074219 62.941406 -52.75 65.628906 -50.101562 C 68.316406 -47.449219 69.660156 -44.019531 69.660156 -39.820312 C 69.660156 -37.648438 69.3125 -35.511719 68.609375 -33.410156 L 62.460938 -13.546875 Z M 60.855469 -14.269531 L 61.640625 -13.875 L 60.800781 -14.136719 L 66.941406 -33.964844 C 67.582031 -35.886719 67.902344 -37.835938 67.902344 -39.820312 C 67.902344 -43.53125 66.730469 -46.539062 64.390625 -48.847656 C 62.050781 -51.160156 58.953125 -52.316406 55.105469 -52.316406 C 51.816406 -52.316406 48.769531 -51.671875 45.96875 -50.382812 C 43.1875 -49.105469 40.53125 -46.8125 38.003906 -43.507812 L 36.464844 -44.300781 L 41.898438 -62.011719 L 41.902344 -62.019531 C 42.339844 -63.339844 42.5625 -64.6875 42.5625 -66.066406 C 42.5625 -68.332031 41.75 -70.113281 40.125 -71.414062 C 38.441406 -72.757812 35.761719 -73.433594 32.078125 -73.433594 C 28.007812 -73.433594 24.101562 -72.875 20.363281 -71.757812 C 16.859375 -70.714844 14.945312 -69.582031 14.628906 -68.359375 L 14.625 -68.34375 L 14.617188 -68.328125 C 14.503906 -67.941406 14.507812 -67.664062 14.632812 -67.5 C 14.886719 -67.15625 15.320312 -66.742188 15.925781 -66.257812 C 16.585938 -65.746094 17.121094 -65.226562 17.535156 -64.699219 C 18.027344 -64.070312 18.277344 -63.285156 18.277344 -62.34375 C 18.277344 -61.847656 18.160156 -61.253906 17.929688 -60.558594 L 17.09375 -60.835938 L 17.9375 -60.582031 L 2.65625 -10.414062 C 2.148438 -8.671875 1.511719 -7.386719 0.75 -6.546875 C 0.0117188 -5.734375 -0.90625 -5.035156 -2 -4.453125 C -2.933594 -3.957031 -3.496094 -3.421875 -3.691406 -2.839844 L -4.523438 -3.117188 L -3.679688 -2.875 C -3.832031 -2.335938 -3.675781 -1.902344 -3.210938 -1.574219 C -2.558594 -1.109375 -1.457031 -0.878906 0.101562 -0.878906 L 23.027344 -0.878906 C 24.992188 -0.878906 26.425781 -1.058594 27.328125 -1.421875 C 28.09375 -1.726562 28.601562 -2.199219 28.84375 -2.828125 L 29.664062 -2.515625 L 28.816406 -2.753906 C 28.878906 -2.964844 28.882812 -3.105469 28.832031 -3.183594 C 28.664062 -3.4375 28.363281 -3.777344 27.9375 -4.203125 L 28.558594 -4.828125 L 28.019531 -4.132812 C 27.339844 -4.660156 26.804688 -5.214844 26.417969 -5.796875 C 25.984375 -6.449219 25.769531 -7.296875 25.769531 -8.347656 C 25.769531 -9.023438 25.878906 -9.796875 26.097656 -10.671875 L 26.101562 -10.695312 L 32.445312 -31.132812 L 34.164062 -30.871094 L 34.164062 -30.671875 L 33.285156 -30.671875 L 32.445312 -30.929688 C 33.296875 -33.699219 34.4375 -35.722656 35.863281 -37.007812 C 37.339844 -38.328125 38.824219 -38.992188 40.324219 -38.992188 C 41.351562 -38.992188 42.230469 -38.667969 42.96875 -38.015625 C 43.734375 -37.339844 44.121094 -36.433594 44.121094 -35.296875 C 44.121094 -34.648438 43.933594 -33.84375 43.558594 -32.871094 L 38.027344 -18.382812 C 36.859375 -15.402344 36.277344 -12.734375 36.277344 -10.375 C 36.335938 -7.234375 37.566406 -4.726562 39.960938 -2.855469 C 42.414062 -0.933594 45.753906 0.0234375 49.976562 0.0234375 C 53.46875 0.0234375 56.449219 -0.535156 58.914062 -1.65625 C 61.355469 -2.765625 63.199219 -4.179688 64.449219 -5.898438 C 65.671875 -7.578125 66.253906 -9.289062 66.191406 -11.03125 L 66.191406 -11.0625 C 66.191406 -11.535156 66.117188 -11.933594 65.972656 -12.25 C 65.925781 -12.34375 65.890625 -12.402344 65.863281 -12.425781 C 65.890625 -12.40625 65.925781 -12.394531 65.964844 -12.394531 C 66.078125 -12.394531 66.167969 -12.414062 66.234375 -12.453125 C 66.210938 -12.4375 66.171875 -12.410156 66.117188 -12.359375 C 65.957031 -12.214844 65.75 -11.980469 65.492188 -11.664062 C 64.746094 -10.742188 63.832031 -10.28125 62.746094 -10.28125 C 62.078125 -10.28125 61.539062 -10.515625 61.128906 -10.984375 C 60.75 -11.417969 60.5625 -11.980469 60.5625 -12.671875 C 60.5625 -13.34375 60.660156 -13.878906 60.855469 -14.269531 Z M 60.855469 -14.269531 "/></g></g></g><g fill="#dd0031" fill-opacity="1"><g transform="translate(147.236243, 103.409061)"><g/></g></g><g fill="#dd0031" fill-opacity="1"><g transform="translate(172.375552, 103.409061)"><g><path d="M 26.445312 -54.074219 C 30.542969 -54.074219 33.578125 -53.269531 35.550781 -51.664062 C 37.574219 -50.015625 38.589844 -47.773438 38.589844 -44.949219 C 38.589844 -43.3125 38.339844 -41.746094 37.839844 -40.246094 L 37.003906 -40.523438 L 37.847656 -40.265625 L 28.59375 -10.199219 L 27.753906 -10.457031 L 28.605469 -10.246094 C 28.421875 -9.511719 28.332031 -8.878906 28.332031 -8.347656 C 28.332031 -7.652344 28.449219 -7.128906 28.6875 -6.773438 C 28.96875 -6.347656 29.375 -5.933594 29.902344 -5.519531 L 29.945312 -5.488281 L 29.984375 -5.449219 C 30.496094 -4.9375 30.867188 -4.507812 31.101562 -4.160156 C 31.453125 -3.632812 31.523438 -3.003906 31.316406 -2.273438 L 31.304688 -2.234375 L 31.289062 -2.199219 C 30.863281 -1.085938 30.027344 -0.285156 28.785156 0.214844 C 27.675781 0.65625 26.023438 0.878906 23.832031 0.878906 L 0.90625 0.878906 C -1.023438 0.878906 -2.46875 0.539062 -3.425781 -0.136719 C -4.566406 -0.945312 -4.949219 -2.019531 -4.566406 -3.359375 L -4.5625 -3.378906 L -4.554688 -3.394531 C -4.210938 -4.421875 -3.367188 -5.292969 -2.019531 -6.007812 C -1.105469 -6.496094 -0.347656 -7.070312 0.253906 -7.730469 C 0.832031 -8.367188 1.339844 -9.425781 1.769531 -10.90625 L 10.523438 -39.984375 L 10.527344 -40 C 10.699219 -40.511719 10.785156 -40.921875 10.785156 -41.226562 C 10.785156 -41.765625 10.679688 -42.175781 10.464844 -42.453125 C 10.183594 -42.816406 9.746094 -43.207031 9.148438 -43.625 L 9.125 -43.640625 L 9.105469 -43.660156 C 8.363281 -44.25 7.832031 -44.789062 7.511719 -45.265625 C 7.09375 -45.898438 7.023438 -46.679688 7.300781 -47.617188 L 8.144531 -47.363281 L 7.292969 -47.585938 C 7.777344 -49.441406 10.089844 -51.007812 14.222656 -52.277344 C 18.128906 -53.476562 22.203125 -54.074219 26.445312 -54.074219 Z M 26.445312 -52.316406 C 22.378906 -52.316406 18.476562 -51.742188 14.738281 -50.59375 C 11.230469 -49.515625 9.316406 -48.367188 8.996094 -47.140625 L 8.988281 -47.109375 C 8.867188 -46.703125 8.863281 -46.414062 8.976562 -46.242188 C 9.195312 -45.914062 9.605469 -45.511719 10.203125 -45.03125 L 9.652344 -44.347656 L 10.15625 -45.066406 C 10.902344 -44.546875 11.46875 -44.03125 11.859375 -43.523438 C 12.316406 -42.929688 12.542969 -42.164062 12.542969 -41.226562 C 12.542969 -40.730469 12.429688 -40.136719 12.199219 -39.441406 L 11.363281 -39.71875 L 12.207031 -39.464844 L 3.460938 -10.414062 C 2.953125 -8.671875 2.316406 -7.386719 1.554688 -6.546875 C 0.816406 -5.734375 -0.101562 -5.035156 -1.195312 -4.453125 C -2.128906 -3.957031 -2.691406 -3.421875 -2.886719 -2.839844 L -3.71875 -3.117188 L -2.875 -2.875 C -3.027344 -2.335938 -2.871094 -1.902344 -2.40625 -1.574219 C -1.753906 -1.109375 -0.652344 -0.878906 0.90625 -0.878906 L 23.832031 -0.878906 C 25.796875 -0.878906 27.230469 -1.058594 28.132812 -1.421875 C 28.898438 -1.726562 29.40625 -2.199219 29.648438 -2.828125 L 30.46875 -2.515625 L 29.621094 -2.753906 C 29.683594 -2.964844 29.6875 -3.105469 29.636719 -3.183594 C 29.46875 -3.4375 29.167969 -3.777344 28.742188 -4.203125 L 29.363281 -4.828125 L 28.824219 -4.132812 C 28.144531 -4.660156 27.609375 -5.214844 27.222656 -5.796875 C 26.789062 -6.449219 26.570312 -7.296875 26.570312 -8.347656 C 26.570312 -9.023438 26.679688 -9.796875 26.898438 -10.671875 L 26.90625 -10.695312 L 36.167969 -40.792969 L 36.171875 -40.804688 C 36.609375 -42.121094 36.828125 -43.503906 36.828125 -44.949219 C 36.828125 -47.21875 36.03125 -49 34.4375 -50.300781 C 32.789062 -51.644531 30.125 -52.316406 26.445312 -52.316406 Z M 33.183594 -76.296875 C 36.039062 -76.296875 38.421875 -75.359375 40.335938 -73.480469 C 42.253906 -71.601562 43.214844 -69.296875 43.214844 -66.570312 C 43.214844 -64.675781 42.726562 -62.828125 41.75 -61.023438 C 40.773438 -59.210938 39.398438 -57.746094 37.625 -56.625 C 35.839844 -55.496094 33.855469 -54.929688 31.675781 -54.929688 C 28.886719 -54.929688 26.550781 -55.871094 24.667969 -57.75 C 22.792969 -59.625 21.820312 -61.953125 21.746094 -64.734375 L 21.746094 -64.757812 C 21.746094 -66.582031 22.214844 -68.378906 23.15625 -70.148438 C 24.097656 -71.921875 25.433594 -73.386719 27.164062 -74.542969 C 28.921875 -75.710938 30.929688 -76.296875 33.183594 -76.296875 Z M 33.183594 -74.539062 C 31.285156 -74.539062 29.601562 -74.050781 28.140625 -73.078125 C 26.65625 -72.085938 25.511719 -70.835938 24.710938 -69.324219 C 23.90625 -67.8125 23.503906 -66.289062 23.503906 -64.757812 L 22.625 -64.757812 L 23.503906 -64.78125 C 23.566406 -62.46875 24.367188 -60.539062 25.914062 -58.996094 C 27.449219 -57.457031 29.371094 -56.6875 31.675781 -56.6875 C 33.515625 -56.6875 35.1875 -57.164062 36.683594 -58.113281 C 38.199219 -59.070312 39.371094 -60.316406 40.203125 -61.859375 C 41.039062 -63.402344 41.453125 -64.972656 41.453125 -66.570312 C 41.453125 -68.804688 40.671875 -70.6875 39.105469 -72.226562 C 37.53125 -73.765625 35.558594 -74.539062 33.183594 -74.539062 Z M 33.183594 -74.539062 "/></g></g></g><g fill="#dd0031" fill-opacity="1"><g transform="translate(214.207351, 103.409061)"><g><path d="M 96.417969 -13.484375 C 96.34375 -13.339844 96.308594 -13.066406 96.308594 -12.671875 C 96.308594 -12.421875 96.351562 -12.246094 96.441406 -12.144531 C 96.503906 -12.074219 96.601562 -12.042969 96.734375 -12.042969 C 97.261719 -12.042969 97.71875 -12.285156 98.113281 -12.769531 C 98.859375 -13.691406 99.472656 -14.152344 99.953125 -14.152344 C 100.664062 -14.152344 101.199219 -13.765625 101.558594 -12.988281 C 101.8125 -12.4375 101.941406 -11.792969 101.941406 -11.0625 L 101.058594 -11.0625 L 101.9375 -11.089844 C 102.011719 -8.945312 101.320312 -6.871094 99.859375 -4.863281 C 98.429688 -2.894531 96.351562 -1.289062 93.632812 -0.0546875 C 90.933594 1.171875 87.710938 1.785156 83.964844 1.785156 C 79.339844 1.785156 75.636719 0.699219 72.863281 -1.46875 C 70.03125 -3.683594 68.578125 -6.640625 68.503906 -10.339844 C 68.503906 -12.941406 69.128906 -15.835938 70.375 -19.023438 L 75.902344 -33.496094 C 76.199219 -34.269531 76.347656 -34.867188 76.347656 -35.296875 C 76.347656 -35.902344 76.164062 -36.371094 75.792969 -36.695312 C 75.386719 -37.054688 74.894531 -37.230469 74.3125 -37.230469 C 73.382812 -37.230469 72.398438 -36.796875 71.355469 -35.925781 C 70.253906 -35.011719 69.261719 -33.542969 68.378906 -31.523438 L 67.574219 -31.875 L 68.414062 -31.617188 L 62.863281 -13.546875 L 62.832031 -13.484375 C 62.757812 -13.339844 62.722656 -13.066406 62.722656 -12.671875 C 62.722656 -12.421875 62.765625 -12.246094 62.855469 -12.144531 C 62.917969 -12.074219 63.015625 -12.042969 63.148438 -12.042969 C 63.675781 -12.042969 64.132812 -12.285156 64.527344 -12.769531 C 65.273438 -13.691406 65.886719 -14.152344 66.367188 -14.152344 C 67.078125 -14.152344 67.613281 -13.765625 67.972656 -12.988281 C 68.226562 -12.4375 68.355469 -11.792969 68.355469 -11.0625 L 67.472656 -11.0625 L 68.351562 -11.089844 C 68.425781 -8.945312 67.734375 -6.871094 66.273438 -4.863281 C 64.84375 -2.894531 62.765625 -1.289062 60.042969 -0.0546875 C 57.347656 1.171875 54.125 1.785156 50.378906 1.785156 C 45.753906 1.785156 42.050781 0.699219 39.277344 -1.46875 C 36.445312 -3.683594 34.992188 -6.640625 34.917969 -10.339844 C 34.917969 -12.941406 35.542969 -15.835938 36.789062 -19.023438 L 42.316406 -33.496094 C 42.613281 -34.269531 42.761719 -34.867188 42.761719 -35.296875 C 42.761719 -35.902344 42.578125 -36.371094 42.203125 -36.695312 C 41.800781 -37.054688 41.308594 -37.230469 40.726562 -37.230469 C 39.792969 -37.230469 38.804688 -36.808594 37.757812 -35.96875 C 36.675781 -35.097656 35.761719 -33.664062 35.011719 -31.667969 L 34.191406 -31.976562 L 35.03125 -31.71875 L 28.386719 -10.179688 L 28.378906 -10.15625 C 28.148438 -9.515625 28.03125 -8.914062 28.03125 -8.347656 C 28.03125 -7.71875 28.148438 -7.226562 28.386719 -6.875 C 28.679688 -6.433594 29.097656 -5.96875 29.644531 -5.484375 C 30.179688 -5.027344 30.570312 -4.589844 30.820312 -4.171875 C 31.152344 -3.621094 31.21875 -2.984375 31.011719 -2.273438 C 30.660156 -1.121094 29.847656 -0.292969 28.582031 0.214844 C 27.472656 0.65625 25.789062 0.878906 23.53125 0.878906 L 0.601562 0.878906 C -1.332031 0.878906 -2.765625 0.539062 -3.691406 -0.148438 C -4.765625 -0.941406 -5.164062 -1.992188 -4.882812 -3.300781 L -4.871094 -3.347656 L -4.855469 -3.394531 C -4.515625 -4.421875 -3.667969 -5.292969 -2.324219 -6.007812 C -1.40625 -6.496094 -0.648438 -7.070312 -0.046875 -7.730469 C 0.53125 -8.367188 1.035156 -9.425781 1.46875 -10.90625 L 10.433594 -40.011719 L 10.445312 -40.046875 C 10.539062 -40.277344 10.582031 -40.636719 10.582031 -41.128906 C 10.582031 -41.667969 10.492188 -42.0625 10.308594 -42.308594 C 10.039062 -42.664062 9.59375 -43.125 8.964844 -43.691406 L 9.554688 -44.347656 L 9.003906 -43.660156 C 8.261719 -44.25 7.730469 -44.789062 7.414062 -45.265625 C 6.992188 -45.898438 6.921875 -46.679688 7.203125 -47.617188 L 8.042969 -47.363281 L 7.191406 -47.585938 C 7.679688 -49.441406 9.988281 -51.007812 14.121094 -52.277344 C 18.027344 -53.476562 22.101562 -54.074219 26.347656 -54.074219 C 29.863281 -54.074219 32.664062 -53.089844 34.746094 -51.117188 C 36.84375 -49.128906 37.855469 -46.429688 37.785156 -43.019531 L 36.90625 -43.039062 L 36.191406 -43.550781 C 39.027344 -47.496094 42.035156 -50.234375 45.21875 -51.773438 C 48.390625 -53.308594 51.820312 -54.074219 55.507812 -54.074219 C 59.625 -54.074219 62.988281 -52.875 65.605469 -50.472656 C 68.222656 -48.070312 69.675781 -44.945312 69.960938 -41.09375 L 69.082031 -41.027344 L 68.339844 -41.496094 C 71.304688 -46.1875 74.496094 -49.453125 77.914062 -51.304688 C 81.332031 -53.152344 85.058594 -54.074219 89.09375 -54.074219 C 93.421875 -54.074219 96.929688 -52.75 99.617188 -50.101562 C 102.304688 -47.449219 103.648438 -44.019531 103.648438 -39.820312 C 103.648438 -37.648438 103.300781 -35.511719 102.597656 -33.410156 L 96.449219 -13.546875 Z M 94.84375 -14.269531 L 95.628906 -13.875 L 94.789062 -14.136719 L 100.929688 -33.964844 C 101.570312 -35.886719 101.890625 -37.835938 101.890625 -39.820312 C 101.890625 -43.53125 100.71875 -46.539062 98.378906 -48.847656 C 96.039062 -51.160156 92.941406 -52.316406 89.09375 -52.316406 C 85.355469 -52.316406 81.90625 -51.460938 78.753906 -49.757812 C 75.601562 -48.050781 72.628906 -44.984375 69.828125 -40.558594 L 68.402344 -38.304688 L 68.207031 -40.960938 C 67.953125 -44.351562 66.691406 -47.089844 64.414062 -49.179688 C 62.136719 -51.269531 59.167969 -52.316406 55.507812 -52.316406 C 52.089844 -52.316406 48.914062 -51.605469 45.984375 -50.191406 C 43.070312 -48.78125 40.28125 -46.226562 37.617188 -42.523438 L 35.964844 -40.226562 L 36.023438 -43.058594 C 36.085938 -45.949219 35.257812 -48.210938 33.535156 -49.839844 C 31.792969 -51.492188 29.398438 -52.316406 26.347656 -52.316406 C 22.277344 -52.316406 18.375 -51.742188 14.636719 -50.59375 C 11.128906 -49.515625 9.214844 -48.367188 8.894531 -47.140625 L 8.886719 -47.109375 C 8.765625 -46.703125 8.761719 -46.414062 8.878906 -46.242188 C 9.09375 -45.914062 9.503906 -45.511719 10.101562 -45.03125 L 10.140625 -45 C 10.855469 -44.359375 11.378906 -43.8125 11.714844 -43.367188 C 12.132812 -42.808594 12.34375 -42.0625 12.34375 -41.128906 C 12.34375 -40.410156 12.253906 -39.832031 12.078125 -39.394531 L 11.261719 -39.71875 L 12.101562 -39.460938 L 3.15625 -10.414062 C 2.648438 -8.671875 2.015625 -7.386719 1.253906 -6.546875 C 0.515625 -5.734375 -0.402344 -5.035156 -1.5 -4.453125 C -2.429688 -3.957031 -2.992188 -3.421875 -3.1875 -2.839844 L -4.023438 -3.117188 L -3.160156 -2.933594 C -3.285156 -2.363281 -3.113281 -1.90625 -2.644531 -1.5625 C -2.027344 -1.105469 -0.945312 -0.878906 0.601562 -0.878906 L 23.53125 -0.878906 C 25.5625 -0.878906 27.027344 -1.058594 27.929688 -1.421875 C 28.675781 -1.71875 29.140625 -2.164062 29.320312 -2.753906 C 29.386719 -2.980469 29.382812 -3.152344 29.3125 -3.269531 C 29.160156 -3.519531 28.882812 -3.820312 28.476562 -4.167969 C 27.816406 -4.753906 27.296875 -5.332031 26.921875 -5.898438 C 26.488281 -6.546875 26.269531 -7.363281 26.269531 -8.347656 C 26.269531 -9.121094 26.421875 -9.925781 26.726562 -10.757812 L 27.550781 -10.457031 L 26.710938 -10.71875 L 33.355469 -32.261719 L 33.367188 -32.285156 C 34.226562 -34.582031 35.324219 -36.265625 36.652344 -37.339844 C 38.023438 -38.441406 39.378906 -38.992188 40.726562 -38.992188 C 41.75 -38.992188 42.632812 -38.667969 43.371094 -38.015625 C 44.136719 -37.339844 44.523438 -36.433594 44.523438 -35.296875 C 44.523438 -34.648438 44.335938 -33.84375 43.960938 -32.871094 L 38.429688 -18.382812 C 37.261719 -15.402344 36.679688 -12.734375 36.679688 -10.375 C 36.738281 -7.234375 37.96875 -4.726562 40.363281 -2.855469 C 42.816406 -0.933594 46.15625 0.0234375 50.378906 0.0234375 C 53.871094 0.0234375 56.851562 -0.535156 59.316406 -1.65625 C 61.757812 -2.765625 63.601562 -4.179688 64.851562 -5.898438 C 66.074219 -7.578125 66.65625 -9.289062 66.59375 -11.03125 L 66.59375 -11.0625 C 66.59375 -11.535156 66.519531 -11.933594 66.375 -12.25 C 66.328125 -12.34375 66.292969 -12.402344 66.265625 -12.425781 C 66.292969 -12.40625 66.328125 -12.394531 66.367188 -12.394531 C 66.480469 -12.394531 66.570312 -12.414062 66.636719 -12.453125 C 66.613281 -12.4375 66.574219 -12.410156 66.519531 -12.359375 C 66.359375 -12.214844 66.152344 -11.980469 65.894531 -11.664062 C 65.148438 -10.742188 64.234375 -10.28125 63.148438 -10.28125 C 62.480469 -10.28125 61.941406 -10.515625 61.53125 -10.984375 C 61.152344 -11.417969 60.960938 -11.980469 60.960938 -12.671875 C 60.960938 -13.34375 61.0625 -13.878906 61.257812 -14.269531 L 62.042969 -13.875 L 61.203125 -14.136719 L 66.75 -32.183594 L 66.769531 -32.230469 C 67.761719 -34.5 68.914062 -36.183594 70.230469 -37.277344 C 71.597656 -38.421875 72.960938 -38.992188 74.3125 -38.992188 C 75.339844 -38.992188 76.21875 -38.667969 76.957031 -38.015625 C 77.722656 -37.339844 78.109375 -36.433594 78.109375 -35.296875 C 78.109375 -34.648438 77.921875 -33.84375 77.546875 -32.871094 L 72.015625 -18.382812 C 70.847656 -15.402344 70.265625 -12.734375 70.265625 -10.375 C 70.324219 -7.234375 71.554688 -4.726562 73.949219 -2.855469 C 76.402344 -0.933594 79.742188 0.0234375 83.964844 0.0234375 C 87.457031 0.0234375 90.4375 -0.535156 92.902344 -1.65625 C 95.34375 -2.765625 97.1875 -4.179688 98.4375 -5.898438 C 99.660156 -7.578125 100.242188 -9.289062 100.179688 -11.03125 L 100.179688 -11.0625 C 100.179688 -11.535156 100.105469 -11.933594 99.960938 -12.25 C 99.914062 -12.34375 99.878906 -12.402344 99.851562 -12.425781 C 99.878906 -12.40625 99.914062 -12.394531 99.953125 -12.394531 C 100.066406 -12.394531 100.15625 -12.414062 100.222656 -12.453125 C 100.199219 -12.4375 100.160156 -12.410156 100.105469 -12.359375 C 99.945312 -12.214844 99.738281 -11.980469 99.480469 -11.664062 C 98.734375 -10.742188 97.820312 -10.28125 96.734375 -10.28125 C 96.066406 -10.28125 95.527344 -10.515625 95.117188 -10.984375 C 94.738281 -11.417969 94.550781 -11.980469 94.550781 -12.671875 C 94.550781 -13.34375 94.648438 -13.878906 94.84375 -14.269531 Z M 94.84375 -14.269531 "/></g></g></g><g fill="#dd0031" fill-opacity="1"><g transform="translate(324.619064, 103.409061)"><g><path d="M 35.898438 -54.074219 C 43.773438 -54.074219 50.097656 -52.605469 54.863281 -49.671875 C 59.765625 -46.648438 62.21875 -42.058594 62.21875 -35.898438 C 62.21875 -33.605469 61.804688 -31.011719 60.980469 -28.117188 L 56.855469 -14.230469 L 56.011719 -14.480469 L 56.863281 -14.265625 C 56.816406 -14.070312 56.789062 -13.804688 56.789062 -13.476562 C 56.789062 -13.148438 56.832031 -12.929688 56.917969 -12.824219 C 56.960938 -12.769531 57.058594 -12.746094 57.21875 -12.746094 C 57.742188 -12.746094 58.199219 -12.988281 58.59375 -13.476562 C 59.339844 -14.398438 59.953125 -14.855469 60.433594 -14.855469 C 61.132812 -14.855469 61.679688 -14.460938 62.078125 -13.667969 C 62.375 -13.074219 62.519531 -12.40625 62.519531 -11.664062 L 61.640625 -11.664062 L 62.519531 -11.695312 C 62.597656 -9.675781 61.847656 -7.644531 60.277344 -5.597656 C 58.753906 -3.613281 56.726562 -1.988281 54.191406 -0.722656 C 51.65625 0.546875 48.875 1.179688 45.855469 1.179688 C 42.226562 1.179688 39.109375 0.511719 36.503906 -0.828125 C 33.820312 -2.203125 31.972656 -4.238281 30.953125 -6.929688 L 31.777344 -7.238281 L 32.453125 -6.675781 C 30.359375 -4.164062 27.878906 -2.226562 25.015625 -0.863281 C 22.144531 0.5 19.070312 1.179688 15.789062 1.179688 C 12.078125 1.179688 8.949219 0.457031 6.402344 -0.996094 C 3.84375 -2.453125 1.9375 -4.34375 0.683594 -6.671875 C -0.558594 -8.980469 -1.179688 -11.417969 -1.179688 -13.976562 C -1.179688 -15.109375 -1.074219 -16.203125 -0.863281 -17.265625 L -0.859375 -17.28125 L -0.855469 -17.292969 C 0.269531 -22.148438 2.722656 -25.8125 6.507812 -28.289062 C 10.238281 -30.730469 14.675781 -31.953125 19.808594 -31.953125 C 25.46875 -31.953125 31.019531 -31.066406 36.472656 -29.292969 L 36.199219 -28.457031 L 35.378906 -28.769531 L 37.890625 -35.40625 L 38.714844 -35.09375 L 37.875 -35.355469 C 38.71875 -38.085938 39.140625 -40.175781 39.140625 -41.628906 L 40.023438 -41.628906 L 39.144531 -41.59375 C 39.085938 -42.9375 38.660156 -43.925781 37.863281 -44.5625 C 37.019531 -45.238281 35.660156 -45.578125 33.789062 -45.578125 L 33.789062 -46.457031 L 34.609375 -46.765625 C 35.050781 -45.59375 35.269531 -44.386719 35.269531 -43.140625 C 35.269531 -40.410156 34.242188 -38.054688 32.1875 -36.070312 C 30.136719 -34.09375 27.253906 -33.109375 23.53125 -33.109375 C 20.042969 -33.109375 17.296875 -33.890625 15.296875 -35.457031 C 13.226562 -37.074219 12.191406 -39.097656 12.191406 -41.53125 C 12.191406 -45.21875 14.214844 -48.253906 18.257812 -50.632812 C 22.148438 -52.929688 28.03125 -54.074219 35.898438 -54.074219 Z M 35.898438 -52.316406 C 28.347656 -52.316406 22.765625 -51.25 19.148438 -49.117188 C 15.683594 -47.078125 13.953125 -44.546875 13.953125 -41.53125 C 13.953125 -39.671875 14.761719 -38.109375 16.378906 -36.84375 C 18.0625 -35.527344 20.449219 -34.867188 23.53125 -34.867188 C 26.78125 -34.867188 29.257812 -35.691406 30.964844 -37.335938 C 32.660156 -38.972656 33.511719 -40.90625 33.511719 -43.140625 C 33.511719 -44.171875 33.328125 -45.175781 32.964844 -46.148438 L 32.515625 -47.335938 L 33.789062 -47.335938 C 36.070312 -47.335938 37.796875 -46.871094 38.960938 -45.9375 C 40.175781 -44.964844 40.824219 -43.542969 40.902344 -41.667969 L 40.902344 -41.628906 C 40.902344 -40 40.453125 -37.734375 39.554688 -34.835938 L 39.546875 -34.808594 L 36.726562 -27.363281 L 35.929688 -27.621094 C 30.652344 -29.335938 25.28125 -30.191406 19.808594 -30.191406 C 15.023438 -30.191406 10.910156 -29.066406 7.46875 -26.816406 C 4.082031 -24.597656 1.875 -21.292969 0.855469 -16.894531 L 0 -17.09375 L 0.863281 -16.921875 C 0.671875 -15.972656 0.578125 -14.992188 0.578125 -13.976562 C 0.578125 -11.710938 1.128906 -9.554688 2.234375 -7.507812 C 3.324219 -5.476562 5.007812 -3.816406 7.273438 -2.523438 C 9.550781 -1.226562 12.390625 -0.578125 15.789062 -0.578125 C 18.804688 -0.578125 21.628906 -1.203125 24.257812 -2.453125 C 26.890625 -3.707031 29.171875 -5.488281 31.101562 -7.804688 L 32.066406 -8.960938 L 32.597656 -7.550781 C 33.457031 -5.28125 35.027344 -3.5625 37.304688 -2.390625 C 39.660156 -1.183594 42.511719 -0.578125 45.855469 -0.578125 C 48.597656 -0.578125 51.113281 -1.152344 53.40625 -2.296875 C 55.699219 -3.441406 57.523438 -4.898438 58.882812 -6.667969 C 60.195312 -8.378906 60.820312 -10.035156 60.761719 -11.632812 L 60.761719 -11.664062 C 60.761719 -12.128906 60.675781 -12.535156 60.503906 -12.878906 C 60.441406 -13.003906 60.386719 -13.085938 60.339844 -13.121094 C 60.359375 -13.105469 60.390625 -13.097656 60.433594 -13.097656 C 60.546875 -13.097656 60.636719 -13.117188 60.703125 -13.15625 C 60.679688 -13.144531 60.640625 -13.113281 60.589844 -13.0625 C 60.429688 -12.917969 60.21875 -12.6875 59.960938 -12.367188 C 59.214844 -11.445312 58.300781 -10.984375 57.21875 -10.984375 C 56.503906 -10.984375 55.949219 -11.226562 55.554688 -11.714844 C 55.203125 -12.144531 55.03125 -12.730469 55.03125 -13.476562 C 55.03125 -13.949219 55.070312 -14.355469 55.15625 -14.695312 L 55.160156 -14.710938 L 59.289062 -28.597656 C 60.070312 -31.335938 60.460938 -33.769531 60.460938 -35.898438 C 60.460938 -41.402344 58.285156 -45.496094 53.941406 -48.171875 C 49.457031 -50.933594 43.441406 -52.316406 35.898438 -52.316406 Z M 30.269531 -21.847656 C 28.667969 -21.847656 27.371094 -21.234375 26.375 -20.007812 C 25.332031 -18.730469 24.8125 -17.355469 24.8125 -15.886719 C 24.8125 -15.011719 25.003906 -14.316406 25.390625 -13.800781 C 25.71875 -13.367188 26.203125 -13.148438 26.847656 -13.148438 C 27.539062 -13.148438 28.332031 -13.449219 29.222656 -14.050781 C 30.09375 -14.644531 30.734375 -15.550781 31.140625 -16.769531 L 33.261719 -22.71875 L 34.089844 -22.425781 L 33.9375 -21.558594 C 32.847656 -21.75 31.625 -21.847656 30.269531 -21.847656 Z M 30.269531 -23.605469 C 31.726562 -23.605469 33.050781 -23.5 34.242188 -23.289062 L 35.265625 -23.109375 L 32.8125 -16.214844 C 32.28125 -14.617188 31.410156 -13.410156 30.207031 -12.59375 C 29.019531 -11.789062 27.898438 -11.386719 26.847656 -11.386719 C 25.617188 -11.386719 24.660156 -11.839844 23.984375 -12.746094 C 23.363281 -13.574219 23.054688 -14.621094 23.054688 -15.886719 C 23.054688 -17.773438 23.707031 -19.515625 25.011719 -21.121094 C 26.359375 -22.777344 28.113281 -23.605469 30.269531 -23.605469 Z M 30.269531 -23.605469 "/></g></g></g><g fill="#dd0031" fill-opacity="1"><g transform="translate(395.411298, 103.409061)"><g><path d="M 60.9375 -70.464844 C 63.207031 -70.464844 65.421875 -69.988281 67.578125 -69.03125 C 69.75 -68.070312 71.53125 -66.75 72.925781 -65.070312 C 74.371094 -63.332031 75.089844 -61.449219 75.089844 -59.429688 C 75.089844 -57.15625 74.300781 -55.4375 72.722656 -54.273438 C 71.226562 -53.167969 69.042969 -52.617188 66.167969 -52.617188 C 64.542969 -52.617188 63.273438 -52.746094 62.359375 -53 C 61.472656 -53.25 60.441406 -53.652344 59.253906 -54.207031 L 59.628906 -55.003906 L 60.4375 -54.660156 C 60.285156 -54.300781 60.207031 -53.746094 60.207031 -52.992188 C 60.207031 -51.992188 60.382812 -50.789062 60.734375 -49.386719 C 61.09375 -47.953125 61.53125 -46.625 62.050781 -45.390625 L 61.238281 -45.050781 L 61.96875 -45.542969 C 63.476562 -43.316406 64.230469 -40.671875 64.230469 -37.609375 C 64.230469 -36.28125 64.058594 -34.683594 63.714844 -32.824219 L 63.707031 -32.785156 C 62.867188 -29.144531 61.035156 -25.824219 58.210938 -22.828125 C 55.402344 -19.847656 51.808594 -17.511719 47.429688 -15.820312 C 43.070312 -14.140625 38.289062 -13.296875 33.082031 -13.296875 C 29.148438 -13.296875 25.449219 -13.570312 21.984375 -14.113281 L 22.121094 -14.984375 L 22.699219 -14.316406 C 21.894531 -13.621094 21.492188 -12.769531 21.492188 -11.765625 C 21.492188 -11.195312 21.773438 -10.714844 22.328125 -10.320312 C 22.980469 -9.859375 24.152344 -9.628906 25.84375 -9.628906 L 40.925781 -9.628906 C 46.253906 -9.628906 50.429688 -8.695312 53.457031 -6.832031 C 56.617188 -4.882812 58.199219 -2.105469 58.199219 1.507812 C 58.199219 2.804688 57.984375 4.132812 57.554688 5.492188 C 56.695312 8.277344 54.769531 10.851562 51.777344 13.210938 C 48.835938 15.53125 44.726562 17.410156 39.449219 18.847656 C 34.210938 20.277344 27.867188 20.992188 20.414062 20.992188 C 13.769531 20.992188 8.136719 20.414062 3.507812 19.253906 C -1.191406 18.082031 -4.714844 16.457031 -7.066406 14.386719 C -9.511719 12.234375 -10.734375 9.816406 -10.734375 7.140625 C -10.734375 6.53125 -10.589844 5.65625 -10.304688 4.511719 L -10.300781 4.488281 L -10.292969 4.464844 C -9.621094 2.304688 -8.132812 0.546875 -5.824219 -0.808594 C -3.597656 -2.117188 -0.00390625 -2.976562 4.953125 -3.390625 L 5.027344 -2.515625 L 4.417969 -1.878906 C 2.628906 -3.59375 1.734375 -5.648438 1.734375 -8.042969 C 1.734375 -8.855469 1.84375 -9.695312 2.0625 -10.570312 L 2.066406 -10.59375 L 2.074219 -10.617188 C 3.238281 -14.394531 6.578125 -17.167969 12.101562 -18.9375 L 12.367188 -18.101562 L 11.945312 -17.328125 C 6.613281 -20.242188 3.945312 -24.523438 3.945312 -30.167969 C 3.945312 -31.714844 4.15625 -33.328125 4.578125 -35.007812 C 5.414062 -38.640625 7.265625 -41.941406 10.125 -44.90625 C 12.964844 -47.847656 16.589844 -50.179688 20.996094 -51.902344 C 25.390625 -53.617188 30.191406 -54.476562 35.394531 -54.476562 C 43.5 -54.476562 49.890625 -53.410156 54.566406 -51.28125 L 54.199219 -50.480469 L 53.464844 -50 C 52.414062 -51.605469 51.59375 -53.335938 51 -55.1875 C 50.402344 -57.050781 50.101562 -58.769531 50.101562 -60.335938 C 50.101562 -63.109375 51 -65.484375 52.792969 -67.460938 C 54.613281 -69.464844 57.324219 -70.464844 60.9375 -70.464844 Z M 60.9375 -68.707031 C 57.84375 -68.707031 55.566406 -67.898438 54.097656 -66.28125 C 52.609375 -64.636719 51.863281 -62.65625 51.863281 -60.335938 C 51.863281 -58.953125 52.132812 -57.414062 52.675781 -55.726562 C 53.222656 -54.023438 53.976562 -52.4375 54.9375 -50.960938 L 56.59375 -48.421875 L 53.835938 -49.679688 C 49.394531 -51.703125 43.246094 -52.71875 35.394531 -52.71875 C 30.410156 -52.71875 25.824219 -51.898438 21.636719 -50.261719 C 17.46875 -48.632812 14.050781 -46.441406 11.394531 -43.683594 C 8.757812 -40.953125 7.054688 -37.917969 6.285156 -34.578125 C 5.898438 -33.039062 5.707031 -31.570312 5.707031 -30.167969 C 5.707031 -25.21875 8.066406 -21.453125 12.789062 -18.871094 L 14.589844 -17.886719 L 12.636719 -17.261719 C 7.699219 -15.679688 4.738281 -13.292969 3.757812 -10.097656 L 2.917969 -10.355469 L 3.769531 -10.144531 C 3.585938 -9.410156 3.496094 -8.710938 3.496094 -8.042969 C 3.496094 -6.148438 4.207031 -4.519531 5.636719 -3.148438 L 7.046875 -1.800781 L 5.101562 -1.636719 C 0.40625 -1.246094 -2.9375 -0.464844 -4.933594 0.707031 C -6.851562 1.832031 -8.074219 3.261719 -8.613281 4.988281 L -9.453125 4.726562 L -8.597656 4.941406 C -8.847656 5.941406 -8.976562 6.675781 -8.976562 7.140625 C -8.976562 9.289062 -7.953125 11.261719 -5.90625 13.066406 C -3.765625 14.949219 -0.484375 16.441406 3.933594 17.546875 C 8.421875 18.671875 13.914062 19.230469 20.414062 19.230469 C 27.707031 19.230469 33.898438 18.539062 38.984375 17.152344 C 44.03125 15.773438 47.933594 14 50.6875 11.828125 C 53.394531 9.695312 55.125 7.40625 55.875 4.964844 C 56.25 3.777344 56.4375 2.625 56.4375 1.507812 C 56.4375 -1.449219 55.136719 -3.730469 52.53125 -5.335938 C 49.789062 -7.023438 45.921875 -7.867188 40.925781 -7.867188 L 25.84375 -7.867188 C 23.78125 -7.867188 22.269531 -8.207031 21.3125 -8.886719 C 20.261719 -9.628906 19.734375 -10.589844 19.734375 -11.765625 C 19.734375 -13.308594 20.339844 -14.601562 21.546875 -15.648438 L 21.855469 -15.914062 L 22.257812 -15.851562 C 25.632812 -15.324219 29.242188 -15.058594 33.082031 -15.058594 C 38.070312 -15.058594 42.640625 -15.859375 46.792969 -17.464844 C 50.925781 -19.058594 54.304688 -21.246094 56.929688 -24.03125 C 59.535156 -26.800781 61.222656 -29.847656 61.992188 -33.179688 L 62.847656 -32.984375 L 61.984375 -33.144531 C 62.308594 -34.898438 62.472656 -36.386719 62.472656 -37.609375 C 62.472656 -40.3125 61.816406 -42.628906 60.511719 -44.554688 L 60.460938 -44.628906 L 60.429688 -44.707031 C 59.875 -46.023438 59.40625 -47.441406 59.027344 -48.960938 C 58.640625 -50.503906 58.449219 -51.847656 58.449219 -52.992188 C 58.449219 -53.984375 58.574219 -54.773438 58.820312 -55.351562 L 59.179688 -56.1875 L 60.003906 -55.800781 C 61.101562 -55.285156 62.042969 -54.917969 62.835938 -54.695312 C 63.59375 -54.484375 64.707031 -54.375 66.167969 -54.375 C 68.65625 -54.375 70.492188 -54.8125 71.679688 -55.6875 C 72.78125 -56.5 73.332031 -57.746094 73.332031 -59.429688 C 73.332031 -61.027344 72.746094 -62.53125 71.574219 -63.945312 C 70.355469 -65.414062 68.785156 -66.574219 66.867188 -67.421875 C 64.933594 -68.277344 62.957031 -68.707031 60.9375 -68.707031 Z M 38.277344 -34.152344 C 39.324219 -37.484375 39.847656 -40.011719 39.847656 -41.730469 C 39.847656 -42.65625 39.671875 -43.320312 39.328125 -43.722656 C 39.015625 -44.089844 38.511719 -44.269531 37.808594 -44.269531 C 36.425781 -44.269531 35.203125 -43.566406 34.136719 -42.15625 C 32.960938 -40.597656 31.75 -37.757812 30.507812 -33.632812 C 29.460938 -30.230469 28.933594 -27.664062 28.933594 -25.945312 C 28.933594 -25.054688 29.101562 -24.414062 29.429688 -24.023438 C 29.722656 -23.679688 30.203125 -23.503906 30.871094 -23.503906 C 32.257812 -23.503906 33.496094 -24.226562 34.59375 -25.671875 C 35.804688 -27.265625 37.03125 -30.089844 38.277344 -34.144531 Z M 39.957031 -33.628906 C 38.652344 -29.375 37.332031 -26.367188 35.996094 -24.605469 C 34.546875 -22.699219 32.839844 -21.746094 30.871094 -21.746094 C 29.660156 -21.746094 28.734375 -22.125 28.089844 -22.886719 C 27.480469 -23.601562 27.175781 -24.621094 27.175781 -25.945312 C 27.175781 -27.84375 27.722656 -30.574219 28.820312 -34.140625 C 30.125 -38.464844 31.429688 -41.492188 32.734375 -43.214844 C 34.148438 -45.09375 35.839844 -46.03125 37.808594 -46.03125 C 39.050781 -46.03125 40.003906 -45.640625 40.667969 -44.867188 C 41.292969 -44.132812 41.605469 -43.085938 41.605469 -41.730469 C 41.605469 -39.832031 41.054688 -37.128906 39.957031 -33.625 Z M 19.105469 2.289062 C 17.191406 2.289062 15.441406 2.183594 13.863281 1.980469 L 13.976562 1.105469 L 14.664062 1.65625 C 13.988281 2.5 13.652344 3.660156 13.652344 5.128906 L 12.769531 5.128906 L 13.648438 5.09375 C 13.703125 6.441406 14.242188 7.40625 15.265625 7.980469 C 16.4375 8.644531 18.320312 8.976562 20.914062 8.976562 C 24.136719 8.976562 26.742188 8.5 28.734375 7.550781 C 30.511719 6.707031 31.398438 5.527344 31.398438 4.023438 C 31.398438 3.503906 31.210938 3.097656 30.832031 2.804688 C 30.390625 2.460938 29.699219 2.289062 28.757812 2.289062 Z M 19.105469 0.527344 L 28.757812 0.527344 C 30.101562 0.527344 31.152344 0.824219 31.914062 1.417969 C 32.742188 2.0625 33.160156 2.929688 33.160156 4.023438 C 33.160156 6.269531 31.9375 7.976562 29.488281 9.140625 C 27.257812 10.203125 24.398438 10.734375 20.914062 10.734375 C 18.011719 10.734375 15.839844 10.328125 14.398438 9.515625 C 12.808594 8.617188 11.972656 7.167969 11.890625 5.164062 L 11.890625 5.128906 C 11.890625 3.246094 12.355469 1.722656 13.289062 0.554688 L 13.601562 0.167969 L 14.089844 0.234375 C 15.59375 0.429688 17.265625 0.527344 19.105469 0.527344 Z M 19.105469 0.527344 "/></g></g></g><g fill="#dd0031" fill-opacity="1"><g transform="translate(464.292956, 103.409061)"><g><path d="M 34.089844 -54.578125 C 42.789062 -54.578125 49.128906 -53.164062 53.101562 -50.34375 C 57.167969 -47.453125 59.203125 -43.742188 59.203125 -39.21875 C 59.203125 -37.871094 59.058594 -36.628906 58.773438 -35.484375 C 57.703125 -30.777344 54.734375 -27.410156 49.863281 -25.382812 C 45.164062 -23.425781 39.636719 -22.449219 33.285156 -22.449219 C 30.089844 -22.449219 27.097656 -22.652344 24.308594 -23.0625 L 24.433594 -23.933594 L 25.316406 -23.914062 C 25.253906 -20.734375 26.070312 -18.53125 27.765625 -17.304688 C 29.558594 -16.007812 32.101562 -15.359375 35.394531 -15.359375 C 36.933594 -15.359375 38.402344 -15.535156 39.808594 -15.886719 C 41.265625 -16.25 43.121094 -16.796875 45.382812 -17.53125 L 45.652344 -16.691406 L 45.355469 -17.519531 C 47.328125 -18.226562 48.703125 -18.578125 49.472656 -18.578125 C 50.113281 -18.578125 50.617188 -18.363281 50.976562 -17.941406 C 51.296875 -17.558594 51.460938 -17.042969 51.460938 -16.390625 L 50.582031 -16.390625 L 51.460938 -16.414062 C 51.53125 -13.875 50.609375 -11.234375 48.6875 -8.496094 C 46.792969 -5.792969 44.003906 -3.503906 40.320312 -1.628906 C 36.640625 0.246094 32.21875 1.179688 27.050781 1.179688 C 19.40625 1.179688 13.125 -0.757812 8.203125 -4.640625 C 3.21875 -8.570312 0.730469 -14.261719 0.730469 -21.71875 C 0.730469 -23.789062 1.003906 -26.195312 1.550781 -28.933594 C 3.273438 -37.398438 7.054688 -43.796875 12.902344 -48.121094 C 18.722656 -52.425781 25.785156 -54.578125 34.089844 -54.578125 Z M 34.089844 -52.816406 C 26.171875 -52.816406 19.457031 -50.78125 13.949219 -46.707031 C 8.464844 -42.648438 4.90625 -36.609375 3.277344 -28.585938 C 2.75 -25.960938 2.488281 -23.671875 2.488281 -21.71875 C 2.488281 -14.832031 4.757812 -9.597656 9.292969 -6.019531 C 13.894531 -2.390625 19.8125 -0.578125 27.050781 -0.578125 C 31.9375 -0.578125 36.09375 -1.453125 39.523438 -3.199219 C 42.945312 -4.941406 45.519531 -7.042969 47.246094 -9.503906 C 48.945312 -11.925781 49.761719 -14.214844 49.699219 -16.367188 L 49.699219 -16.390625 C 49.699219 -16.613281 49.675781 -16.75 49.632812 -16.804688 L 49.636719 -16.796875 C 49.601562 -16.8125 49.546875 -16.816406 49.472656 -16.816406 C 48.90625 -16.816406 47.730469 -16.5 45.949219 -15.863281 L 45.925781 -15.855469 C 43.625 -15.113281 41.730469 -14.554688 40.234375 -14.179688 C 38.691406 -13.792969 37.078125 -13.601562 35.394531 -13.601562 C 31.71875 -13.601562 28.832031 -14.359375 26.734375 -15.878906 C 24.542969 -17.46875 23.484375 -20.15625 23.554688 -23.949219 L 23.574219 -24.949219 L 24.5625 -24.804688 C 27.269531 -24.40625 30.175781 -24.210938 33.285156 -24.210938 C 39.402344 -24.210938 44.703125 -25.140625 49.1875 -27.007812 C 53.5 -28.800781 56.125 -31.769531 57.066406 -35.910156 C 57.316406 -36.914062 57.441406 -38.015625 57.441406 -39.21875 C 57.441406 -43.136719 55.65625 -46.367188 52.082031 -48.90625 C 48.414062 -51.515625 42.414062 -52.816406 34.089844 -52.816406 Z M 25.351562 -30.820312 C 25.550781 -30.769531 25.847656 -30.746094 26.246094 -30.746094 C 28.71875 -30.746094 30.609375 -31.902344 31.914062 -34.21875 C 33.3125 -36.695312 33.976562 -39.460938 33.914062 -42.515625 C 33.867188 -43.820312 33.625 -44.472656 33.183594 -44.472656 C 32.714844 -44.472656 32.066406 -43.988281 31.238281 -43.019531 C 30.292969 -41.917969 29.351562 -40.234375 28.414062 -37.976562 C 27.464844 -35.679688 26.660156 -32.949219 26 -29.785156 L 25.140625 -29.964844 Z M 24.925781 -29.113281 L 24.105469 -29.316406 L 24.277344 -30.144531 C 24.960938 -33.417969 25.796875 -36.25 26.789062 -38.648438 C 27.796875 -41.082031 28.835938 -42.921875 29.902344 -44.164062 C 31.082031 -45.542969 32.175781 -46.230469 33.183594 -46.230469 C 34.753906 -46.230469 35.585938 -45.003906 35.671875 -42.554688 C 35.742188 -39.175781 35 -36.109375 33.449219 -33.355469 C 31.804688 -30.441406 29.402344 -28.984375 26.246094 -28.984375 C 25.703125 -28.984375 25.265625 -29.027344 24.925781 -29.113281 Z M 24.925781 -29.113281 "/></g></g></g><g fill="#dd0031" fill-opacity="1"><g transform="translate(525.632817, 103.409061)"><g><path d="M 13.300781 -59.773438 C 13.546875 -64.996094 15.015625 -68.9375 17.707031 -71.59375 C 20.410156 -74.261719 24.296875 -75.59375 29.363281 -75.59375 C 33.253906 -75.59375 36.300781 -74.726562 38.503906 -72.992188 C 40.773438 -71.207031 41.90625 -68.730469 41.90625 -65.5625 C 41.90625 -62.460938 40.832031 -58.96875 38.679688 -55.082031 L 22.890625 -26.921875 L 22.121094 -27.351562 L 22.902344 -26.945312 C 22.039062 -25.285156 21.132812 -24.097656 20.191406 -23.382812 C 19.195312 -22.625 17.996094 -22.25 16.59375 -22.25 C 15 -22.25 13.804688 -22.753906 13.007812 -23.765625 C 12.253906 -24.722656 11.914062 -26.097656 11.992188 -27.890625 L 13.300781 -59.765625 Z M 15.058594 -59.695312 L 13.75 -27.816406 C 13.691406 -26.457031 13.90625 -25.472656 14.390625 -24.855469 C 14.835938 -24.289062 15.570312 -24.007812 16.59375 -24.007812 C 17.601562 -24.007812 18.445312 -24.265625 19.125 -24.785156 C 19.859375 -25.339844 20.597656 -26.332031 21.34375 -27.757812 L 21.347656 -27.769531 L 37.140625 -55.933594 C 39.144531 -59.554688 40.148438 -62.765625 40.148438 -65.5625 C 40.148438 -68.160156 39.238281 -70.175781 37.417969 -71.609375 C 35.53125 -73.09375 32.847656 -73.835938 29.363281 -73.835938 C 24.777344 -73.835938 21.304688 -72.671875 18.945312 -70.34375 C 16.578125 -68.003906 15.28125 -64.453125 15.058594 -59.691406 Z M 13.875 -21.191406 C 16.796875 -21.191406 19.265625 -20.203125 21.28125 -18.226562 C 23.300781 -16.242188 24.308594 -13.820312 24.308594 -10.960938 C 24.308594 -9 23.785156 -7.078125 22.738281 -5.203125 C 21.695312 -3.332031 20.257812 -1.804688 18.425781 -0.617188 C 16.574219 0.582031 14.484375 1.179688 12.167969 1.179688 C 9.308594 1.179688 6.890625 0.191406 4.910156 -1.792969 C 2.933594 -3.765625 1.910156 -6.179688 1.835938 -9.027344 L 1.835938 -9.050781 C 1.835938 -11.007812 2.339844 -12.921875 3.347656 -14.796875 C 4.359375 -16.671875 5.78125 -18.203125 7.617188 -19.390625 C 9.472656 -20.59375 11.558594 -21.191406 13.875 -21.191406 Z M 13.875 -19.433594 C 11.90625 -19.433594 10.136719 -18.925781 8.574219 -17.914062 C 6.988281 -16.890625 5.765625 -15.574219 4.898438 -13.960938 C 4.027344 -12.351562 3.59375 -10.710938 3.59375 -9.050781 L 2.714844 -9.050781 L 3.59375 -9.074219 C 3.65625 -6.691406 4.507812 -4.679688 6.152344 -3.035156 C 7.792969 -1.398438 9.796875 -0.578125 12.167969 -0.578125 C 14.140625 -0.578125 15.90625 -1.085938 17.472656 -2.097656 C 19.058594 -3.125 20.300781 -4.445312 21.203125 -6.058594 C 22.101562 -7.667969 22.550781 -9.304688 22.550781 -10.960938 C 22.550781 -13.328125 21.714844 -15.332031 20.046875 -16.96875 C 18.375 -18.613281 16.320312 -19.433594 13.875 -19.433594 Z M 13.875 -19.433594 "/></g></g></g></g></g></svg>